<svg id="Capa_1" enable-background="new 0 0 512 512" height="512" viewBox="0 0 512 512" width="512" xmlns="http://www.w3.org/2000/svg"><g><g><g><g><path d="m192.195 28.983c-80.326 0-112.759 39.311-112.759 90.655 0 39.989 23.689 57.769 23.689 57.769h178.14s23.689-17.779 23.689-57.769c0-51.345-32.433-90.655-112.759-90.655z" fill="#433f43"/><g><g><g><path d="m350.443 432.021v79.979h-306.343c-5.603 0-10.151-4.548-10.151-10.151v-69.828c0-66.326 47.861-121.475 110.929-132.794 12.455-2.243 21.743-12.739 22.779-25.347l2.771-33.792h43.527l2.781 33.792c1.035 12.607 10.323 23.103 22.768 25.347 63.077 11.319 110.939 66.468 110.939 132.794z" fill="#23f1a8"/><path d="m350.126 422.703c-3.183.391-6.428.598-9.725.598-40.074 0-73.122-29.999-77.974-68.754-6.397 11.219-18.461 18.78-32.296 18.78-4.698 0-9.189-.886-13.341-2.472-1.586-4.152-2.462-8.643-2.462-13.341 0-20.542 16.637-37.189 37.169-37.189 4.718 0 9.21.876 13.341 2.472.01.031.021.072.041.103 1.422-4.924 3.307-9.653 5.615-14.124 44.421 19.84 76.161 62.995 79.632 113.927z" fill="#26d192"/><path d="m256.6 303.463c-12.737 22.376-36.814 37.469-64.405 37.469s-51.668-15.093-64.405-37.469c5.594-1.776 11.339-3.213 17.21-4.258 12.359-2.205 21.607-12.574 22.64-25.084l2.797-34.029h43.516l2.797 34.029c1.033 12.511 10.281 22.879 22.64 25.084 5.871 1.045 11.616 2.481 17.21 4.258z" fill="#fdb0a0"/><path d="m219.709 284.536c-8.882 1.85-18.091 2.821-27.514 2.821s-18.632-.971-27.514-2.821c1.625-3.179 2.657-6.705 2.964-10.415l2.79-34.035h43.52l2.79 34.035c.307 3.711 1.339 7.237 2.964 10.415z" fill="#f89f8e"/><path d="m256.604 303.463c-4.12 7.232-9.411 13.695-15.635 19.125-5.052-1.361-10.192-2.52-15.408-3.452-16.908-3.011-29.569-17.21-30.981-34.332l-3.679-44.713h23.056l2.797 34.029c1.033 12.511 10.281 22.879 22.64 25.084 5.871 1.046 11.616 2.482 17.21 4.259z" fill="#f89f8e"/><path d="m108.05 426.286v85.714h-15.46v-85.714c0-4.263 3.461-7.725 7.735-7.725 4.264 0 7.725 3.462 7.725 7.725z" fill="#26d192"/><g><g><circle cx="94.529" cy="166.905" fill="#fdb0a0" r="27.151"/></g><g><circle cx="289.861" cy="166.905" fill="#fdb0a0" r="27.151"/></g></g><path d="m192.192 267.907c-47.095 0-86.208-36.345-89.66-83.313l-1.959-26.659c-3.912-53.244 38.231-98.597 91.618-98.597 53.388 0 95.53 45.353 91.618 98.597l-1.959 26.659c-3.45 46.968-42.563 83.313-89.658 83.313z" fill="#ffcec0"/></g><g><g><g><g><g fill="#433f43"><path d="m146.814 174.782c-4.267 0-7.726-3.459-7.726-7.726v-.151c0-4.267 3.459-7.726 7.726-7.726s7.726 3.459 7.726 7.726v.151c.001 4.267-3.459 7.726-7.726 7.726z"/><path d="m237.574 174.782c-4.267 0-7.726-3.459-7.726-7.726v-.151c0-4.267 3.459-7.726 7.726-7.726s7.726 3.459 7.726 7.726v.151c0 4.267-3.459 7.726-7.726 7.726z"/></g></g></g></g></g></g><g><path d="m192.193 224.122c-10.537 0-20.466-4.085-27.957-11.503-3.032-3.003-3.056-7.894-.053-10.927s7.895-3.056 10.927-.053c4.578 4.534 10.645 7.03 17.083 7.03s12.505-2.496 17.083-7.03c3.032-3.002 7.923-2.978 10.927.053 3.003 3.032 2.979 7.924-.053 10.927-7.491 7.418-17.42 11.503-27.957 11.503z" fill="#fc9aa1"/></g></g><path d="m95.45 57.971s-6.942 61.321 95.382 61.321c99.659 0 117.896-40.589 113.535-88.19-.503-5.491-5.327-9.591-10.827-9.206-9.879.691-26.554-.023-45.768-8.608-36.019-16.095-131.093-31.841-152.322 44.683z" fill="#685e67"/><path d="m190.83 119.295c-26.331 0-45.421-4.059-59.256-10.096 9.23 1.514 19.8 2.369 31.884 2.369 99.649 0 117.894-40.589 113.526-88.194-.062-.68-.185-1.339-.381-1.968 6.748.824 12.527.793 16.936.484 5.501-.381 10.322 3.719 10.827 9.21 4.358 47.606-13.877 88.195-113.536 88.195z" fill="#554e55"/></g><g><g><g><path d="m459.647 500.329c-5.896-39.174-36.288-70.321-75.093-77.316-8.542-1.54-14.993-8.607-15.703-17.257l-1.92-23.387h-29.907l-1.92 23.387c-.71 8.65-7.161 15.717-15.703 17.257-38.804 6.995-69.196 38.142-75.093 77.316-.924 6.141 3.836 11.67 10.046 11.67h195.246c6.212-.001 10.971-5.529 10.047-11.67z" fill="#fcb44d"/><path d="m361.728 422.988c42.662 7.62 75.193 44.417 76.257 89.011h11.622c6.16 0 10.966-5.452 10.057-11.544-5.858-39.283-36.345-70.516-75.256-77.467-8.492-1.515-14.855-8.639-15.556-17.235l-1.922-23.381h-22.671l1.913 23.381c.71 8.596 7.073 15.72 15.556 17.235z" fill="#fb9927"/><path d="m416.01 434.925-.97 1.697c-12.881 22.619-37.05 36.678-63.063 36.678s-50.182-14.058-63.063-36.678l-.97-1.697c9.539-5.791 20.213-9.903 31.605-11.937 8.492-1.515 14.846-8.639 15.556-17.235l1.922-23.381h29.9l1.922 23.381c.71 8.596 7.064 15.72 15.556 17.235 11.392 2.034 22.066 6.146 31.605 11.937z" fill="#f2eff2"/><path d="m416.013 434.925-.97 1.697c-1.956 3.437-4.181 6.683-6.631 9.704-12.751-11.851-28.826-20.152-46.685-23.338-8.483-1.515-14.846-8.639-15.556-17.235l-1.913-23.381h22.671l1.922 23.381c.71 8.596 7.064 15.72 15.556 17.235 11.393 2.034 22.067 6.146 31.606 11.937z" fill="#e1dde1"/><path d="m396.23 425.914c-8.752 15.374-25.294 25.744-44.252 25.744s-35.5-10.371-44.252-25.744c3.843-1.221 7.791-2.207 11.825-2.926 8.492-1.515 14.846-8.639 15.556-17.235l1.922-23.381h29.9l1.922 23.381c.71 8.596 7.064 15.72 15.556 17.235 4.032.718 7.98 1.705 11.823 2.926z" fill="#fdb0a0"/><g fill="#f89f8e"><path d="m371.943 414.721c-6.06 1.498-12.396 2.294-18.914 2.294-7.168 0-14.11-.961-20.715-2.753 1.558-2.519 2.536-5.419 2.796-8.509l1.922-23.381h29.9l1.922 23.381c.267 3.28 1.366 6.345 3.089 8.968z"/><path d="m396.233 425.914c-2.831 4.969-6.466 9.41-10.743 13.141-3.471-.935-7.003-1.731-10.587-2.372-11.617-2.069-20.317-11.825-21.286-23.589l-2.528-30.722h15.841l1.922 23.381c.71 8.596 7.064 15.72 15.556 17.235 4.034.718 7.982 1.705 11.825 2.926z"/></g></g></g><g><g><g><path d="m225.905 335.113c0 4.698.877 9.193 2.47 13.337 4.144 1.593 8.639 2.47 13.337 2.47 20.532 0 37.177-16.645 37.177-37.19 0-4.698-.877-9.193-2.47-13.337-4.131-1.593-8.626-2.47-13.337-2.47-20.532 0-37.177 16.644-37.177 37.19z" fill="#554e55"/></g><g><path d="m278.892 313.729c0 20.55-16.647 37.187-37.177 37.187-4.701 0-9.192-.868-13.344-2.465-1.118-2.924-1.886-6.028-2.246-9.252 1.118.1 2.236.15 3.373.15 20.53 0 37.177-16.647 37.177-37.197 0-1.377-.08-2.735-.22-4.082 3.483.319 6.827 1.118 9.96 2.326 1.599 4.141 2.477 8.632 2.477 13.333z" fill="#433f43"/></g></g><g><g><path d="m478.051 335.113c0 4.698-.877 9.193-2.47 13.337-4.144 1.593-8.639 2.47-13.337 2.47-20.532 0-37.177-16.645-37.177-37.19 0-4.698.877-9.193 2.47-13.337 4.131-1.593 8.626-2.47 13.337-2.47 20.533 0 37.177 16.644 37.177 37.19z" fill="#554e55"/></g><g><path d="m478.05 335.117c0 4.691-.878 9.192-2.465 13.334-4.152 1.597-8.643 2.465-13.344 2.465-.759 0-1.507-.02-2.256-.07.459-2.326.699-4.731.699-7.186 0-19.791-15.43-35.949-34.911-37.117.409-2.116 1.008-4.182 1.767-6.148 4.132-1.597 8.623-2.475 13.334-2.475 20.529 0 37.176 16.647 37.176 37.197z" fill="#433f43"/></g></g></g><circle cx="351.978" cy="322.292" fill="#ffcec0" r="78.607"/><g fill="#fc9aa1"><circle cx="307.688" cy="341.944" r="8.977"/><circle cx="396.268" cy="341.944" r="8.977"/></g><g><path d="m272.118 280.799c0 7.77 1.451 15.204 4.086 22.058 6.854 2.635 14.289 4.086 22.058 4.086 33.958 0 61.487-27.529 61.487-61.509 0-7.77-1.451-15.204-4.086-22.058-6.832-2.635-14.266-4.086-22.058-4.086-33.958 0-61.487 27.529-61.487 61.509z" fill="#554e55"/><path d="m359.753 245.433c0 33.983-27.536 61.509-61.489 61.509-7.775 0-15.21-1.447-22.057-4.082-1.777-4.631-3.024-9.531-3.643-14.611 5.659 2.036 11.747 3.154 18.104 3.154 29.572 0 53.535-23.973 53.535-53.555 0-6.358-1.108-12.456-3.144-18.115 5.09.619 9.99 1.866 14.601 3.643 2.636 6.857 4.093 14.292 4.093 22.057z" fill="#433f43"/><g><path d="m431.838 280.799c0 7.77-1.451 15.204-4.086 22.058-6.854 2.635-14.289 4.086-22.058 4.086-33.958 0-61.487-27.529-61.487-61.509 0-7.77 1.451-15.204 4.086-22.058 6.832-2.635 14.266-4.086 22.058-4.086 33.959 0 61.487 27.529 61.487 61.509z" fill="#685e67"/><path d="m431.841 280.804c0 7.765-1.457 15.2-4.092 22.057-5.819 2.236-12.066 3.623-18.574 3.982 2.355-6.048 3.783-12.585 4.112-19.422 1.577-33.943-24.642-62.727-58.565-64.304-1.916-.09-3.822-.09-5.709-.01 6.627-2.465 13.813-3.813 21.338-3.813 33.954 0 61.49 27.526 61.49 61.51z" fill="#554e55"/></g></g><path d="m351.978 372.526c-7.268 0-14.115-2.817-19.281-7.934-3.032-3.003-3.055-7.895-.053-10.927 3.004-3.032 7.896-3.055 10.927-.053 2.254 2.232 5.239 3.461 8.407 3.461 3.169 0 6.155-1.229 8.408-3.461 3.032-3.002 7.924-2.978 10.927.053 3.002 3.032 2.979 7.924-.053 10.927-5.167 5.117-12.014 7.934-19.282 7.934z" fill="#fc9aa1"/><g fill="#685e67"><path d="m316.665 338.062c-4.268 0-7.726-3.459-7.726-7.726v-.103c0-4.267 3.459-7.726 7.726-7.726 4.268 0 7.726 3.459 7.726 7.726v.103c0 4.267-3.459 7.726-7.726 7.726z"/><path d="m387.291 338.062c-4.268 0-7.726-3.459-7.726-7.726v-.103c0-4.267 3.459-7.726 7.726-7.726 4.268 0 7.726 3.459 7.726 7.726v.103c.001 4.267-3.458 7.726-7.726 7.726z"/></g></g></g></g><g><g><g><path d="m406.616 196.562c-2.333 1.774-5.541 1.794-7.899.053-8.689-6.414-21.25-17.35-32.982-33.67-18.448-25.665-28.997-56.165-31.421-90.787-.206-2.947 1.53-5.687 4.304-6.705l60.868-22.336c1.466-.538 3.075-.538 4.54 0l60.883 22.341c2.769 1.016 4.505 3.749 4.305 6.691-2.359 34.622-12.625 65.127-30.58 90.797-11.372 16.258-23.556 27.182-32.018 33.616z" fill="#23f1a8"/><path d="m469.216 72.157c-2.359 34.611-12.627 65.123-30.578 90.784-11.375 16.264-23.566 27.19-32.028 33.622-2.333 1.779-5.536 1.793-7.895.053-4.191-3.097-9.292-7.249-14.762-12.547 8.211-6.616 18.966-16.857 29.075-31.316 17.951-25.662 28.219-56.173 30.578-90.797.118-1.858-.527-3.638-1.727-4.943l23.026 8.448c2.769 1.015 4.509 3.743 4.311 6.696z" fill="#26d192"/><path d="m402.436 166.114c-5.024-4.809-10.495-10.837-15.789-18.201-13.079-18.195-21.494-39.483-25.098-63.441l40.206-14.754 40.265 14.776c-3.511 24.06-11.723 45.436-24.492 63.691-5.056 7.23-10.282 13.171-15.092 17.929z" fill="#fcb44d"/></g></g><path d="m410.104 157.813c-2.606 3.091-5.192 5.851-7.665 8.303-2.503-2.39-5.13-5.11-7.788-8.128l-.598-85.443 7.706-2.823 7.747 2.843z" fill="#f98824"/></g></g></svg>