<svg id="Capa_1" enable-background="new 0 0 512 512" height="512" viewBox="0 0 512 512" width="512" xmlns="http://www.w3.org/2000/svg"><g><g><g><g><g><g><g><circle cx="256" cy="256" fill="#ff6c52" r="256"/></g></g></g></g></g></g><path d="m506.222 310.335-230.127-230.127-162.144 46.526-9.223 26.451 72.5 72.5-5.387 6.09 103.292 103.292-4.903 3.818 17.655 17.655 12.955 42.859-9.76 55.875 44.208 44.208c85.757-27.905 151.636-99.856 170.934-189.147z" fill="#ea190f"/><g><path d="m104.729 153.186 14.584-18.526 11.436 3.05 4.605 34.372 18.244 27.366 18.244 32.328 63.204 12 14.954 17.572 17.8 18.093-5.8 26.215 8.231 33.231 22.141 13.279 9.135 24.512-20.199 48.869 9.774 29.729 21.502 4.805-5.864-20.199 16.941-39.747 12.38-9.122 22.154-35.837 13.683-5.864 16.941-33.231-8.47-12.38-24.109-8.47-7.819-16.29-37.792-18.244-14.986 10.425-26.064-15.638-7.579-20.199-23.045-3.509-3.258-17.993 23.457 5.213 7.819-22.458 17.353-30.625 17.593-3.257-1.955-13.032-21.262-19.244-8.471 7.168-8.231-14.335h-6l-6 20.199-14.303-5.213 3.258-20.199 11.045-16.941 9.154-7.819 9.774 13.683v8.471l12.38 5.213 7.167-17.593-11.077-9.774-1.303-13.031-20.095-13.032-14.439-3.258-2.606 23.457-31.927 11.728-41.702-9.773-20.199 9.122-35.837-14.987-15.638 17.593 6.516 14.987-6.516 11.882v12.878z" fill="#fff"/></g><g><path d="m259.154 218.996 7.819-22.458 17.353-30.624 17.593-3.259-1.955-13.031-21.262-19.244-8.471 7.168-8.231-14.335h-5.972v95.088z" fill="#fff"/><path d="m259.154 93.24 9.774 13.683v8.471l12.38 5.212 7.167-17.592-11.077-9.774-1.303-13.032-20.067-13.013v28.715z" fill="#fff"/><path d="m380.349 303.701-24.109-8.471-7.819-16.289-37.792-18.244-14.986 10.425-26.063-15.638-7.58-20.199-6-.909v33.071l11.8 11.994-5.8 26.215 8.231 33.231 22.141 13.279 9.135 24.513-20.199 48.868 9.774 29.729 21.502 4.805-5.864-20.199 16.941-39.746 12.38-9.123 22.154-35.837 13.683-5.864 16.941-33.231z" fill="#e9edf5"/></g><g><path d="m256 134.639c-24.961 0-45.196 20.235-45.196 45.196s45.196 82.165 45.196 82.165 45.195-57.204 45.195-82.165-20.234-45.196-45.195-45.196zm0 62.865c-10.806 0-19.566-8.76-19.566-19.566s8.76-19.566 19.566-19.566 19.566 8.76 19.566 19.566-8.76 19.566-19.566 19.566z" fill="#fdba12"/></g><g><path d="m256.028 134.64v23.733c10.793.015 19.538 8.768 19.538 19.565s-8.745 19.549-19.538 19.564l-.028 64.498c1.18-1.498 45.195-57.539 45.195-82.165.001-24.951-20.219-45.18-45.167-45.195z" fill="#ffa300"/></g></g></svg>