<svg id="Capa_1" enable-background="new 0 0 497 497" height="512" viewBox="0 0 497 497" width="512" xmlns="http://www.w3.org/2000/svg"><path d="m403.5 155h-155v80h155c22.092 0 40-17.909 40-40s-17.909-40-40-40z" fill="#ffa786"/><path d="m93.5 155c-22.091 0-40 17.909-40 40s17.909 40 40 40h155v-80z" fill="#ffc38f"/><path d="m250.12.01v374.98c84.86-.87 153.38-69.93 153.38-154.99v-65c0-85.06-68.52-154.12-153.38-154.99z" fill="#ffa786"/><path d="m250.12.01c-.54-.01-1.08-.01-1.62-.01-85.6 0-155 69.4-155 155v65c0 85.6 69.4 155 155 155 .54 0 1.08 0 1.62-.01 68.29-1.08 123.38-70.06 123.38-154.99v-65c0-84.93-55.09-153.91-123.38-154.99z" fill="#ffc38f"/><circle cx="248.5" cy="155" fill="#fff7df" r="125"/><path d="m280.44 94.701c-2.649 0-5.24.244-7.762.686l-24.178 139.613 63.602-63.719c8.103-8.118 13.115-19.333 13.115-31.72-.001-24.775-20.048-44.86-44.777-44.86z" fill="#fa4087"/><path d="m295.216 139.561c0-22.12-9.734-40.487-22.537-44.173-9.389 1.647-17.775 6.214-24.179 12.746-8.124-8.287-19.43-13.432-31.94-13.432-24.729 0-44.776 20.084-44.776 44.859 0 12.387 5.012 23.602 13.115 31.72l63.601 63.719 38.73-63.719c4.934-8.118 7.986-19.333 7.986-31.72z" fill="#fa71a3"/><path d="m437 405h-30l60 92h22.5c4.142 0 7.5-3.358 7.5-7.5v-24.5c0-33-27-60-60-60z" fill="#be437c"/><path d="m467 465v32h-459.5c-4.142 0-7.5-3.358-7.5-7.5v-24.5c0-33 27-60 60-60h30l158.5 36 158.5-36c33 0 60 27 60 60z" fill="#fa4087"/><path d="m176 451h-40c-25.4 0-46-20.59-46-46h40z" fill="#fff7df"/><path d="m367 405h40c0 25.41-20.59 46-46 46h-40z" fill="#fff7df"/><path d="m337 405h30c0 25.41-20.59 46-46 46h-30z" fill="#ffa786"/><path d="m130 405h207c0 25.41-20.59 46-46 46h-115c-25.4 0-46-20.59-46-46z" fill="#ffc38f"/></svg>