<?xml version="1.0" encoding="utf-8"?>
<!-- Generator: Adobe Illustrator 24.0.0, SVG Export Plug-In . SVG Version: 6.00 Build 0)  -->
<svg version="1.1" id="Capa_1" xmlns="http://www.w3.org/2000/svg" xmlns:xlink="http://www.w3.org/1999/xlink" x="0px" y="0px"
	 viewBox="0 0 512 512" style="enable-background:new 0 0 512 512;" xml:space="preserve">
<style type="text/css">
	.st0{fill:#88B337;}
	.st1{fill:#6B962A;}
	.st2{fill:#FFFFFF;}
	.st3{fill:#FDB62F;}
	.st4{fill:#FEC9A3;}
	.st5{fill:#F7BB8F;}
	.st6{fill:#4398D1;}
	.st7{fill:#3E8CC7;}
	.st8{fill:#D9D9D9;}
</style>
<g id="XMLID_20_">
	<g id="XMLID_14_">
		<path id="XMLID_16_" class="st0" d="M423.6,332.5c0-3.9-1.1-7.7-3.1-10.9l-19.7-31.7c-2.5-4.9-3.7-10.3-3.7-15.7v-97.6
			c0-63.4-51.4-114.7-114.7-114.7h-53c-63.4,0-114.7,51.4-114.7,114.7v97.6c0,5.5-1.3,10.8-3.7,15.7l-19.7,31.7
			c-2,3.3-3.1,7.1-3.1,10.9l0,0c0,11.3,9.2,20.5,20.6,20.6h294.2C414.4,353,423.6,343.9,423.6,332.5z"/>
		<polygon id="XMLID_15_" class="st0" points="282.4,61.8 326.5,0.1 185.3,0.1 229.5,61.8 229.5,79.5 282.4,79.5 		"/>
	</g>
	<path id="XMLID_13_" class="st1" d="M420.5,321.6l-19.7-31.7c-2.5-4.9-3.7-10.3-3.7-15.7v-97.6c0.1-25.6-8.4-50.4-24.1-70.6
		c-23.6,129.8-106.5,204.7-184.5,247.1h214.5c11.4,0,20.7-9.2,20.7-20.6c0-3.9-1-7.7-3.1-10.9H420.5z"/>
	<g id="XMLID_17_">
		<g id="XMLID_18_">
			<path id="XMLID_19_" class="st2" d="M276.6,254.7c-4.9,3.4-10.4,5.1-16.1,5.1c-12.2,0-22.8-8.1-28.5-19.9h21.9
				c3.7,0,6.6-3,6.6-6.6s-3-6.6-6.6-6.6h-25.9c-0.3-2.2-0.6-4.4-0.6-6.6c0-2.3,0.3-4.5,0.6-6.6h32.6c3.7,0,6.6-3,6.6-6.6
				c0-3.7-3-6.6-6.6-6.6H232c5.7-11.8,16.3-19.9,28.5-19.9c5.8,0,11.2,1.7,16.1,5.1c3,2.1,7.2,1.3,9.2-1.7c2.1-3,1.3-7.1-1.7-9.2
				c-7.1-4.8-15.2-7.4-23.6-7.4c-19.4,0-36,13.7-42.9,33.1h-10.1c-3.7,0-6.6,3-6.6,6.6c0,3.7,3,6.6,6.6,6.6h7.2
				c-0.2,2.2-0.6,4.4-0.6,6.6s0.3,4.4,0.6,6.6h-7.2c-3.7,0-6.6,3-6.6,6.6s3,6.6,6.6,6.6h10.1c6.9,19.4,23.5,33.1,42.9,33.1
				c8.4,0,16.5-2.6,23.6-7.4c3-2.1,3.8-6.2,1.7-9.2C283.8,253.4,279.7,252.6,276.6,254.7z"/>
		</g>
	</g>
	<g id="XMLID_6_">
		<path id="XMLID_8_" class="st3" d="M432.4,88.3L432.4,88.3c-3-18.1-17.2-32.3-35.3-35.3l0,0c18.1-3,32.3-17.2,35.3-35.3l0,0
			c3,18.1,17.2,32.3,35.3,35.3l0,0C449.6,56,435.4,70.2,432.4,88.3z"/>
		<path id="XMLID_7_" class="st3" d="M35.3,264.8L35.3,264.8c-3-18.1-17.2-32.3-35.3-35.3l0,0c18.1-3,32.3-17.2,35.3-35.3l0,0
			c3,18.1,17.2,32.3,35.3,35.3l0,0C52.5,232.5,38.3,246.7,35.3,264.8z"/>
	</g>
	<path id="XMLID_5_" class="st4" d="M508.1,308c-7.2-12.2-22.8-16.5-35.3-9.8l-125.2,53.5c-2.2,0.9-4.6,1.4-7,1.4H185.3
		c-9.8,0-17.7-7.9-17.7-17.7s7.9-17.7,17.7-17.7h70.6c29.2,0,53-23.7,53-53H162c-24.3,0-47.4,11.1-62.6,30.1l-55.3,67l62.3,114.2
		l239.8-57.6c10.4-2.4,20.4-6.1,29.8-10.9l123.6-63.3C511.9,336.5,515.7,320.4,508.1,308z"/>
	<path id="XMLID_4_" class="st5" d="M86.6,439.7l19.9,36.4l239.8-57.6c10.4-2.4,20.4-6.1,29.8-10.9l66.8-34.3
		C331.8,407.2,184.5,428.4,86.6,439.7z"/>
	<polygon id="XMLID_3_" class="st6" points="0,353.1 0,511.9 114.7,511.9 141.2,485.5 35.3,326.6 	"/>
	<path id="XMLID_2_" class="st7" d="M0,511.9h114.7l26.5-26.5l-19.4-29.1C82.5,472.5,41.7,484.7,0,492.6V511.9z"/>
	<circle id="XMLID_1_" class="st8" cx="79.4" cy="467.8" r="17.7"/>
</g>
</svg>
