<?xml version="1.0" encoding="utf-8"?>
<!-- Generator: Adobe Illustrator 24.0.0, SVG Export Plug-In . SVG Version: 6.00 Build 0)  -->
<svg version="1.1" id="Ebene_1" xmlns="http://www.w3.org/2000/svg" xmlns:xlink="http://www.w3.org/1999/xlink" x="0px" y="0px"
	 viewBox="0 0 500 500" style="enable-background:new 0 0 500 500;" xml:space="preserve">
<style type="text/css">
	.st0{fill:#F4F3F4;}
</style>
<path id="XMLID_10_" class="st0" d="M500,109.6c-5-3.6-12.1-7.5-19.5-5.9c-2.4,0.5-4,1.4-4.9,2c-9.6,5.3-25.2,10.8-36.1,9.3
	c-11.8-1.6-18.7-7.6-30.8-4.9c-7.2,1.7-8,4.6-16.6,8.3c0,0-15.2,6.6-33.2,4.4c-21.9-2.7-22.8-16.1-43.9-19.5
	c-6.1-1-15.6,0.8-34.7,4.4c-35.9,6.8-37.8,11.8-48.6,8.4c-6.5-2-22.1-8.5-28.5-6.8c-2.6,0.7-6.2,2.2-12.1,2.4
	c-4.9,0.2-8.5-0.7-9.7-1c-10.5-2.3-22.1,2.3-32.3,3.9c-21.9,3.3-24-9.5-49.2-7.8c-15.5,1.1-15.9,6-29.9,5.4
	c-16.3-0.7-20.9-7.6-32.8-7.8c-7.1-0.1-12.4,2.2-16.1,3.8c-11.3,4.8-18,12.6-21,16.7c0,13,0,25.9,0,38.9h500
	C500,145.7,500,127.7,500,109.6z"/>
</svg>
