<?xml version="1.0" encoding="utf-8"?>
<!-- Generator: Adobe Illustrator 24.0.0, SVG Export Plug-In . SVG Version: 6.00 Build 0)  -->
<svg version="1.1" id="Capa_1" xmlns="http://www.w3.org/2000/svg" xmlns:xlink="http://www.w3.org/1999/xlink" x="0px" y="0px"
	 viewBox="0 0 310.3 310.3" style="enable-background:new 0 0 310.3 310.3;" xml:space="preserve">
<style type="text/css">
	.st0{fill:#FFDA84;}
</style>
<path id="XMLID_566_" class="st0" d="M154,114.6c-21.7,0-39.4,17.7-39.4,39.4s17.7,39.4,39.4,39.4s39.4-17.7,39.4-39.4
	S175.7,114.6,154,114.6z M134.7,173.4c-0.4,0.3-1.6,0.6-2.2-0.2l-1.2-1.5c-0.6-1,0.1-1.9,0.6-2.3c2.2-1.8,3.7-3.2,4.7-4.2
	c1.9-2,3.4-4.1,4.3-6.1c0.2-0.5-0.3-0.8-0.6-0.8c-7.1-2.3-10.7-6.4-10.7-12.3c0-3.5,1.2-6.3,3.4-8.4c2.3-2.2,5.2-3.2,8.6-3.2
	c3.1,0,5.8,1.4,8.2,4.2c2.3,2.6,3.5,5.5,3.5,8.6C153.4,156.2,147.2,164.9,134.7,173.4z M161.7,173.4c-0.4,0.3-1.6,0.6-2.2-0.2
	l-1.2-1.5c-0.6-1,0.1-1.9,0.6-2.3c2.2-1.8,3.7-3.2,4.7-4.2c1.9-2,3.4-4.1,4.3-6.1c0.2-0.5-0.3-0.8-0.6-0.8
	c-7.1-2.3-10.7-6.4-10.7-12.3c0-3.5,1.2-6.3,3.4-8.4c2.3-2.2,5.2-3.2,8.6-3.2c3.1,0,5.8,1.4,8.2,4.2c2.3,2.6,3.5,5.5,3.5,8.6
	C180.4,156.2,174.2,164.9,161.7,173.4z"/>
</svg>
