<svg height="512pt" viewBox="-2 0 512 512.00277" width="512pt" xmlns="http://www.w3.org/2000/svg"><path d="m502.960938 512h-497.710938c-2.898438 0-5.25-2.347656-5.25-5.25v-15.714844c0-2.898437 2.351562-5.25 5.25-5.25h497.710938c2.898437 0 5.25 2.351563 5.25 5.25v15.714844c0 2.902344-2.351563 5.25-5.25 5.25zm0 0" fill="#00b965"/><path d="m502.8125 485.785156h-39.039062c2.980468 0 5.398437 2.417969 5.398437 5.398438v15.421875c0 2.980469-2.417969 5.398437-5.398437 5.398437h39.039062c2.980469 0 5.398438-2.417968 5.398438-5.398437v-15.421875c0-2.980469-2.417969-5.398438-5.398438-5.398438zm0 0" fill="#00a855"/><path d="m116.480469 120.273438-10.988281 386.441406c-.082032 2.894531 2.242187 5.285156 5.136718 5.285156h54.519532c2.898437 0 5.222656-2.390625 5.140624-5.285156l-10.988281-386.441406zm0 0" fill="#ca6d36"/><path d="m482.417969 504.925781c-15.292969-25.226562-42.65625-42.320312-74.082031-43.261719-.007813 0-.019532 0-.03125 0-2.390626-.054687-3.375-3.09375-1.445313-4.507812l50.679687-37.121094c2.9375-2.148437 2.410157-6.707031-.949218-8.101562-28.023438-11.617188-61.253906-8.753906-87.511719 10.480468-1.441406 1.054688-3.359375 2.652344-5.101563 4.15625-1.785156 1.539063-4.550781.261719-4.550781-2.09375l.027344-77.078124c0-3.636719-3.984375-5.90625-7.097656-4.019532-25.9375 15.730469-43.269531 44.226563-43.28125 76.777344 0 .851562.039062 1.921875.09375 3.035156.121093 2.402344-2.671875 3.808594-4.515625 2.261719-1.347656-1.128906-2.726563-2.25-3.808594-3.039063-26.257812-19.234374-59.488281-22.097656-87.511719-10.480468-3.359375 1.394531-3.886719 5.953125-.949219 8.101562l50.097657 36.695313c2.113281 1.550781 1.070312 4.914062-1.550781 4.976562-.085938.003907-.164063.003907-.226563.007813-30.832031 1.382812-57.617187 18.320312-72.695313 43.15625-1.886718 3.105468.386719 7.082031 4.023438 7.085937l145.542969.042969c.117187 0 .21875-.035156.332031-.042969l140.476562.042969c3.632813.003906 5.917969-3.96875 4.035157-7.074219zm0 0" fill="#00b965"/><path d="m482.417969 504.925781c-15.292969-25.226562-42.65625-42.320312-74.082031-43.261719-.007813 0-.019532 0-.03125 0-2.390626-.054687-3.375-3.09375-1.445313-4.507812l50.679687-37.121094c2.9375-2.148437 2.410157-6.707031-.949218-8.101562-11.347656-4.703125-23.550782-6.988282-35.796875-6.820313l-63.742188 46.691407c-2.511719 1.835937-1.230469 5.785156 1.882813 5.859374h.035156c40.058594 1.199219 75.027344 22.589844 95.121094 54.328126l24.292968.007812c3.632813.003906 5.917969-3.96875 4.035157-7.074219zm0 0" fill="#00a855"/><path d="m256.980469 255.988281-7.128907 250.726563c-.082031 2.894531 2.242188 5.285156 5.140626 5.285156h54.519531c2.894531 0 5.21875-2.390625 5.136719-5.285156l-7.128907-250.726563zm0 0" fill="#ca6d36"/><path d="m159.300781 120.273438h-22.75l10.988281 386.441406c.082032 2.894531-2.242187 5.285156-5.136718 5.285156h22.746094c2.898437 0 5.222656-2.390625 5.140624-5.285156zm0 0" fill="#ad5e2e"/><path d="m307.519531 255.988281h-22.746093l7.128906 250.726563c.082031 2.894531-2.242188 5.285156-5.140625 5.285156h22.75c2.898437 0 5.222656-2.390625 5.140625-5.285156zm0 0" fill="#ad5e2e"/><path d="m258.699219 132.003906c-12.445313-20.523437-34.707031-34.433594-60.28125-35.199218-.007813 0-.015625 0-.023438 0-1.945312-.046876-2.75-2.519532-1.175781-3.667969l41.238281-30.207031c2.386719-1.75 1.960938-5.457032-.777343-6.589844-22.796876-9.457032-49.839844-7.125-71.207032 8.523437-1.171875.859375-2.730468 2.160157-4.148437 3.382813-1.453125 1.25-3.703125.214844-3.703125-1.703125l.019531-62.71875c.003906-2.960938-3.242187-4.804688-5.773437-3.269531-21.101563 12.796874-35.207032 35.984374-35.21875 62.46875 0 .695312.03125 1.566406.078124 2.472656.101563 1.953125-2.171874 3.097656-3.675781 1.839844-1.09375-.917969-2.21875-1.832032-3.09375-2.472657-21.367187-15.652343-48.410156-17.980469-71.207031-8.527343-2.738281 1.136718-3.164062 4.84375-.777344 6.59375l40.765625 29.855468c1.722657 1.261719.871094 4-1.261719 4.050782-.070312.003906-.132812.003906-.183593.007812-25.089844 1.121094-46.882813 14.90625-59.152344 35.113281-1.535156 2.527344.316406 5.765625 3.273437 5.765625l118.425782.039063c.09375 0 .175781-.03125.269531-.035157l114.304687.035157c2.957032.003906 4.816407-3.230469 3.285157-5.757813zm0 0" fill="#00b965"/><path d="m258.699219 132.003906c-12.445313-20.523437-34.707031-34.433594-60.28125-35.199218-.007813 0-.015625 0-.023438 0-1.945312-.046876-2.75-2.519532-1.175781-3.667969l41.238281-30.207031c2.386719-1.75 1.960938-5.457032-.777343-6.589844-9.230469-3.828125-19.160157-5.6875-29.125-5.550782l-51.867188 37.988282c-2.042969 1.5-1 4.710937 1.53125 4.769531h.03125c32.59375.976563 61.050781 18.382813 77.398438 44.207031l19.769531.007813c2.953125.003906 4.8125-3.230469 3.28125-5.757813zm0 0" fill="#00a855"/><path d="m387.980469 259.839844h-1.039063c-1.382812 0-2.390625-1.339844-1.96875-2.652344.976563-3.007812 1.503906-6.214844 1.503906-9.546875 0-17.109375-13.867187-30.976563-30.972656-30.976563h-46.507812c-1.378906 0-2.390625-1.339843-1.964844-2.652343.972656-3.007813 1.5-6.21875 1.5-9.550781 0-17.105469-13.867188-30.976563-30.972656-30.976563h-59.261719c-17.105469 0-30.972656 13.867187-30.972656 30.976563 0 12.976562 7.976562 24.078124 19.296875 28.691406 1.058594.429687 1.558594 1.625 1.121094 2.679687-1.5 3.640625-2.332032 7.625-2.332032 11.804688 0 3.335937.527344 6.542969 1.5 9.550781.425782 1.3125-.585937 2.652344-1.964844 2.652344h-37.027343c-17.109375 0-30.976563 13.867187-30.976563 30.976562 0 17.105469 13.867188 30.972656 30.976563 30.972656h220.0625c17.105469 0 30.972656-13.867187 30.972656-30.972656.003906-17.105468-13.867187-30.976562-30.972656-30.976562zm0 0" fill="#00b965"/><path d="m387.980469 259.839844h-1.039063c-1.382812 0-2.390625-1.339844-1.96875-2.648438.976563-3.007812 1.503906-6.21875 1.503906-9.550781 0-17.109375-13.867187-30.976563-30.972656-30.976563h-15.980468c4.492187 5.375 7.199218 12.296876 7.199218 19.851563 0 3.332031-.527344 6.539063-1.503906 9.546875-.425781 1.3125.585938 2.652344 1.964844 2.652344h1.042968c17.105469 0 30.972657 13.867187 30.972657 30.976562 0 17.105469-13.867188 30.972656-30.972657 30.972656h-204.085937c5.683594 6.800782 14.222656 11.128907 23.777344 11.128907h220.0625c17.105469 0 30.972656-13.867188 30.972656-30.976563.003906-17.105468-13.867187-30.976562-30.972656-30.976562zm0 0" fill="#00a855"/></svg>